<svg width="50" height="51" viewBox="0 0 50 51" fill="none" xmlns="http://www.w3.org/2000/svg">
<g clip-path="url(#clip0_425_1027)">
<path d="M0 25.909C0 27.6214 0.172656 29.2935 0.500684 30.909L25 32.4308L49.4994 30.909C49.8275 29.2935 50 27.6214 50 25.909C50 24.1966 49.8273 22.5246 49.4994 20.909L25 19.3873L0.500684 20.909C0.172656 22.5246 0 24.1966 0 25.909H0Z" fill="#0052B4"/>
<path d="M49.4995 30.9091H0.500732C2.81704 42.3202 12.9054 50.9091 25 50.9091C37.0947 50.9091 47.1831 42.3202 49.4995 30.9091Z" fill="#F0F0F0"/>
<path d="M0.500732 20.9091H49.4996C47.1831 9.49793 37.0949 0.909058 25.0001 0.909058C12.9052 0.909058 2.81704 9.49793 0.500732 20.9091V20.9091Z" fill="black"/>
<path d="M35.8694 20.909H14.1304L18.5718 18.8198L16.2066 14.5185L21.0294 15.4409L21.6407 10.5689L24.9999 14.1523L28.3593 10.5689L28.9702 15.4409L33.7932 14.5185L31.4282 18.82L35.8694 20.909Z" fill="#FFDA44"/>
<path d="M0 25.9091C0 39.7161 11.193 50.9091 25 50.9091L4.99961 10.9082C1.86055 15.0868 0 20.2805 0 25.9091Z" fill="#A2001D"/>
<path d="M25 50.9091C38.807 50.9091 50 39.7161 50 25.9091C50 20.2805 48.1395 15.0868 45.0004 10.9082L25 50.9091Z" fill="#A2001D"/>
</g>
<defs>
<clipPath id="clip0_425_1027">
<rect width="50" height="50" fill="white" transform="translate(0 0.909058)"/>
</clipPath>
</defs>
</svg>
