<svg width="50" height="50" viewBox="0 0 50 50" fill="none" xmlns="http://www.w3.org/2000/svg">
<g clip-path="url(#clip0_425_1001)">
<path d="M25 50C38.8071 50 50 38.8071 50 25C50 11.1929 38.8071 0 25 0C11.1929 0 0 11.1929 0 25C0 38.8071 11.1929 50 25 50Z" fill="#F0F0F0"/>
<path d="M40.2224 5.16622C31.272 -1.72108 18.7282 -1.72108 9.77783 5.16613L25.0001 20.3884L40.2224 5.16622Z" fill="#D80027"/>
<path d="M24.9999 29.6117L9.77783 44.8338C18.7282 51.7211 31.272 51.7211 40.2224 44.8338L25.0001 29.6115L24.9999 29.6117Z" fill="#D80027"/>
<path d="M20.3884 25L5.16621 9.77771C-1.72109 18.7281 -1.72109 31.2719 5.16621 40.2222L20.3884 25Z" fill="#6DA544"/>
<path d="M29.6118 25L44.8339 40.2222C51.7212 31.2719 51.7212 18.7281 44.8339 9.77771L29.6118 25Z" fill="#6DA544"/>
<path d="M24.9999 35.8696C31.003 35.8696 35.8694 31.0031 35.8694 25C35.8694 18.9969 31.003 14.1305 24.9999 14.1305C18.9968 14.1305 14.1304 18.9969 14.1304 25C14.1304 31.0031 18.9968 35.8696 24.9999 35.8696Z" fill="#F0F0F0"/>
<path d="M25 17.3913L25.9413 19.0218H27.824L26.8826 20.6521L27.824 22.2826H25.9413L25 23.9131L24.0586 22.2826H22.176L23.1173 20.6521L22.176 19.0218H24.0586L25 17.3913Z" fill="#D80027"/>
<path d="M20.2154 25L21.1567 26.6305H23.0393L22.098 28.2608L23.0393 29.8913H21.1567L20.2154 31.5218L19.274 29.8913H17.3914L18.3327 28.2608L17.3914 26.6305H19.274L20.2154 25Z" fill="#D80027"/>
<path d="M29.7847 25L30.726 26.6305H32.6086L31.6673 28.2608L32.6086 29.8913H30.726L29.7847 31.5218L28.8433 29.8913H26.9607L27.902 28.2608L26.9607 26.6305H28.8433L29.7847 25Z" fill="#D80027"/>
</g>
<defs>
<clipPath id="clip0_425_1001">
<rect width="50" height="50" fill="white"/>
</clipPath>
</defs>
</svg>
